<svg width="15" height="14" viewBox="0 0 15 14" fill="none" xmlns="http://www.w3.org/2000/svg">
<path d="M14.7896 1.52836C14.8188 0.976845 14.3954 0.5061 13.8438 0.476922L4.85642 0.00142246C4.30491 -0.0277565 3.83416 0.395679 3.80498 0.947193C3.7758 1.49871 4.19924 1.96945 4.75075 1.99863L12.7396 2.4213L12.3169 10.4101C12.2877 10.9616 12.7112 11.4324 13.2627 11.4616C13.8142 11.4907 14.2849 11.0673 14.3141 10.5158L14.7896 1.52836ZM0.330977 12.2378C-0.0796344 12.6072 -0.113087 13.2395 0.256259 13.6501C0.625606 14.0607 1.25789 14.0941 1.6685 13.7248L0.999737 12.9813L0.330977 12.2378ZM13.791 1.47552L13.1223 0.732047L0.330977 12.2378L0.999737 12.9813L1.6685 13.7248L14.4598 2.219L13.791 1.47552Z" fill="#1B1B1B"/>
</svg>
