<svg width="246" height="236" viewBox="0 0 246 236" fill="none" xmlns="http://www.w3.org/2000/svg">
<path fill-rule="evenodd" clip-rule="evenodd" d="M90.2134 0.898915C79.7324 5.56599 12.7026 33.8544 3.77544 37.3794C0.627487 38.6219 -0.725673 40.6446 0.381785 42.4534C0.747499 43.0517 6.23508 50.2394 12.5751 58.4267C18.916 66.614 24.1035 73.6432 24.1035 74.0465C24.1035 74.4506 20.4117 79.4215 15.8984 85.0938C1.47236 103.226 0.191423 104.979 0.191423 106.591C0.191423 108.365 1.11977 108.918 14.0229 114.844L23.1658 119.042V153.523C23.1658 182.231 23.3946 188.33 24.5349 189.957C25.2879 191.032 30.8786 194.145 36.9598 196.875C59.8694 207.159 83.3333 217.921 101.724 226.58C117.66 234.084 121.225 235.436 123.761 234.937C125.424 234.611 132.06 231.847 138.506 228.795C153.717 221.597 184.85 207.328 193.832 203.44C209.946 196.463 219.983 191.308 220.944 189.513C221.626 188.238 221.964 176.221 221.964 153.264V118.921L229.232 115.709C241.118 110.453 244.916 108.328 245.207 106.769C245.358 105.956 240.19 98.6318 233.723 90.4933C227.256 82.3538 221.964 74.8651 221.964 73.8524C221.964 72.8396 226.712 65.9145 232.514 58.4623C244.15 43.5177 245.585 40.9596 243.484 38.8948C242.737 38.1605 230.521 32.7339 216.338 26.8356C202.155 20.9372 181.92 12.4255 171.374 7.92064C154.053 0.52383 152.003 -0.145702 150.198 1.00583C149.099 1.70725 142.79 8.18882 136.179 15.4093C129.567 22.6298 123.483 28.6454 122.658 28.7776C120.655 29.0974 120.416 28.8854 111.846 19.1602C101.27 7.15825 94.1781 -0.0735169 93.0557 0.000563708C92.524 0.0352597 91.2449 0.439428 90.2134 0.898915ZM76.1475 12.674C68.4112 16.047 56.1635 21.2954 48.9299 24.3365C24.2995 34.6909 8.76788 41.7229 8.45562 42.6607C8.28401 43.1764 11.8399 48.2524 16.3579 53.9425C20.8758 59.6326 25.6273 65.6566 26.9167 67.3286L29.261 70.3706L39.576 66.0064C45.2493 63.6058 54.7306 59.7358 60.6468 57.4055C68.9954 54.1178 72.5625 52.1336 76.5882 48.5393C84.0666 41.8617 91.5318 38.4756 102.067 36.9837C111.46 35.653 116.344 34.1911 115.842 32.8586C115.672 32.4047 110.89 26.8853 105.217 20.5931C99.5438 14.3009 94.5645 8.55641 94.1519 7.82686C92.9403 5.68321 90.9551 6.21772 76.1475 12.674ZM140.294 19.2953C133.896 26.332 128.66 32.5116 128.66 33.0274C128.66 33.5431 131.192 35.021 134.287 36.3113C137.381 37.6016 147.087 41.7154 155.854 45.4513C193.853 61.645 214.479 70.2637 215.15 70.2271C215.546 70.2055 218.462 66.7237 221.631 62.4908C224.8 58.2579 229.612 51.9395 232.324 48.4521C235.036 44.9637 237.085 41.9714 236.877 41.8026C236.669 41.6339 227.427 37.6663 216.338 32.9843C205.249 28.3031 186.636 20.429 174.976 15.4872C163.315 10.5444 153.359 6.50091 152.851 6.50091C152.343 6.50091 146.692 12.2586 140.294 19.2953ZM95.2246 44.3795C90.6626 46.0093 83.1804 50.4373 83.1804 51.5072C83.1804 51.977 84.7174 52.7863 86.5966 53.3048C90.1918 54.2979 92.222 53.7071 94.451 51.0215C95.1505 50.1794 97.8184 48.4277 100.38 47.1299C103.87 45.3613 104.708 44.5596 103.721 43.9351C101.915 42.792 99.284 42.9289 95.2246 44.3795ZM105.746 50.3407C101.911 52.2743 98.6154 54.3523 98.4232 54.958C98.2225 55.5948 99.9808 56.6094 102.584 57.3586C107.018 58.6349 107.162 58.6086 111.322 55.787C113.648 54.2097 117.341 52.1158 119.527 51.1349C124.01 49.1244 124.455 48.2355 121.393 47.414C116.675 46.15 112.513 46.9283 105.746 50.3407ZM128.891 53.4127C111.826 57.7028 96.6059 76.7115 95.2556 95.4211C94.9724 99.3351 95.0877 99.5255 98.6829 101.114L102.404 102.757L103.433 95.6545C105.377 82.2328 112.961 70.9942 123.691 65.6322C133.652 60.6548 145.095 62.1814 152.63 69.4928C157.516 74.2359 160.186 80.2186 160.793 87.7917C161.055 91.0466 161.413 93.7097 161.59 93.7097C161.767 93.7097 163.661 93.0101 165.798 92.1549L169.684 90.5992L169.201 84.8876C168.121 72.1091 159.904 59.7255 149.534 55.2478C144.017 52.865 134.451 52.0145 128.891 53.4127ZM71.9408 62.8584C65.8549 72.2742 65.9102 73.4847 72.4781 74.5331C76.1409 75.1192 76.366 75.0114 77.5775 72.0857C78.2743 70.4034 80.2425 66.9947 81.9501 64.5116C83.6587 62.0285 85.0559 59.8164 85.0559 59.597C85.0559 58.9706 79.3451 57.1383 77.3937 57.1383C76.2731 57.1383 74.2992 59.2097 71.9408 62.8584ZM88.1879 65.3453C84.2054 71.3289 82.058 75.7728 82.6703 76.764C83.2029 77.6258 92.4443 80.0967 92.9619 79.5153C93.1288 79.3278 94.2091 77.276 95.3625 74.9551C96.5168 72.6342 98.516 69.3278 99.8063 67.608C101.096 65.8882 101.786 64.1525 101.34 63.7502C100.704 63.1772 92.7584 60.8826 91.439 60.8911C91.2805 60.892 89.8177 62.8959 88.1879 65.3453ZM124.804 72.096C115.285 77.5554 110.032 86.9234 109.954 98.5812C109.904 106.101 110.332 107.126 113.989 108.233C116.145 108.887 116.179 108.806 115.428 104.823C113.623 95.2598 116.355 85.8346 122.555 80.2336C134.997 68.993 151.221 77.397 149.488 94.1861C149.197 97.0189 149.118 99.3361 149.314 99.3361C149.511 99.3361 150.706 98.8644 151.971 98.2877C154.778 97.0086 155.476 93.9282 154.423 87.4569C153.443 81.4395 151.759 78.1462 147.729 74.3643C143.229 70.1408 141.178 69.3278 135.052 69.3372C130.746 69.3447 128.589 69.9251 124.804 72.096ZM20.5589 87.8967C16.2884 93.4143 11.4976 99.5152 9.91286 101.453L7.03031 104.977L12.0509 107.219C16.5238 109.216 24.3858 112.671 66.6633 131.216C72.7941 133.905 81.215 137.723 85.3775 139.701L92.945 143.295L96.2674 139.402C98.095 137.262 103.278 131.29 107.784 126.132C112.289 120.973 115.665 116.461 115.285 116.105C114.522 115.389 89.8336 104.04 64.4258 92.7241C55.4002 88.705 44.2178 83.7022 39.576 81.6064C34.9343 79.5115 30.5035 77.8124 29.7299 77.8311C28.9563 77.8489 24.8293 82.3791 20.5589 87.8967ZM201.334 83.5663C194.372 86.6964 180.868 92.7288 171.327 96.9721C161.786 101.215 148.393 107.176 141.566 110.217C134.74 113.258 129.151 116.168 129.147 116.684C129.14 117.631 150.308 141.783 151.561 142.26C151.934 142.4 154.739 141.398 157.797 140.031C166.819 135.996 200.457 121.315 219.129 113.261C228.658 109.151 236.632 105.611 236.85 105.393C237.067 105.175 235.655 102.985 233.711 100.525C231.767 98.0664 226.993 91.9393 223.103 86.9112C219.213 81.8821 215.572 77.7927 215.012 77.8218C214.452 77.8518 208.297 80.4362 201.334 83.5663ZM64.0676 80.1614C62.7042 83.7144 63.506 85.303 67.6873 87.335C69.9969 88.4566 72.1424 89.1195 72.4547 88.8063C72.767 88.494 73.248 86.5595 73.5237 84.5087C74.0085 80.89 73.9297 80.7597 70.8661 80.1417C69.1285 79.791 67.0196 79.3118 66.1775 79.0774C65.3317 78.8411 64.3893 79.3249 64.0676 80.1614ZM78.5359 86.8905C77.3121 91.7489 77.3168 91.7545 83.9269 94.3136C88.6718 96.1506 89.3094 95.693 90.1412 89.8566L90.7573 85.5346L86.2655 84.3727C83.7956 83.7341 81.289 83.0711 80.6964 82.8995C80.0934 82.7251 79.1426 84.4815 78.5359 86.8905ZM29.3248 134.266C28.9984 140.584 29.0613 154.987 29.4645 166.273L30.1987 186.792L42.8581 192.613C49.8207 195.814 66.0669 203.295 78.9606 209.239C111.919 224.429 117.963 227.093 118.425 226.631C118.648 226.409 118.721 203.324 118.588 175.331L118.345 124.438L107.24 136.799C101.132 143.599 95.5031 149.403 94.7314 149.7C93.3248 150.24 87.9028 148.091 68.6456 139.366C52.4379 132.022 31.1965 122.779 30.5279 122.779C30.1931 122.779 29.6511 127.949 29.3248 134.266ZM208.836 125.104C205.999 126.363 191.756 132.685 177.185 139.152C162.614 145.62 150.535 150.911 150.342 150.911C150.151 150.911 144.78 145.003 138.406 137.783C132.033 130.562 126.495 124.655 126.098 124.655C125.703 124.655 125.378 147.653 125.378 175.761C125.378 203.869 125.714 226.867 126.124 226.867C127.076 226.867 143.398 219.625 161.481 211.179C169.217 207.566 178.923 203.106 183.049 201.269C187.175 199.432 196.036 195.396 202.741 192.302L214.931 186.675L215.178 154.727C215.314 137.156 215.103 122.788 214.709 122.797C214.315 122.807 211.673 123.845 208.836 125.104ZM147.884 189.937C140.921 192.791 134.482 195.356 133.573 195.636C131.231 196.36 130.406 200.415 132.231 202.24C133.566 203.574 134.944 203.218 147.218 198.36C154.652 195.419 161.641 192.377 162.749 191.6C166.039 189.296 164.935 184.478 161.169 184.708C160.825 184.728 154.846 187.081 147.884 189.937ZM163.825 195.657C163.051 195.945 158.832 197.844 154.448 199.875C150.064 201.907 143.207 204.832 139.211 206.378C133.435 208.61 131.826 209.656 131.369 211.474C130.791 213.779 132.267 216.552 134.07 216.552C134.599 216.552 140.138 214.281 146.381 211.504C152.623 208.728 160.368 205.295 163.591 203.875C168.178 201.853 169.451 200.852 169.451 199.263C169.451 195.834 167.208 194.395 163.825 195.657Z" fill="white"/>
</svg>
