<svg width="140" height="27" viewBox="0 0 140 27" fill="none" xmlns="http://www.w3.org/2000/svg">
<g clip-path="url(#clip0_304_26)">
<path fill-rule="evenodd" clip-rule="evenodd" d="M53.4209 25.2956H65.739L66.0009 24.9665L74.614 16.6706C74.7311 16.5535 74.8156 16.4696 74.9318 16.352L75.9098 15.421C76.5734 14.8366 77.2301 14.2597 77.946 13.7298L79.2006 12.9844C79.3051 12.9281 79.1988 12.9801 79.3276 12.9297C79.3382 12.9256 79.3506 12.9218 79.3611 12.9177L80.2388 12.5681C80.9153 12.3544 81.9119 12.1572 82.6011 12.1123C82.7759 12.1009 82.9361 12.0679 83.1208 12.041L85.4647 11.885L114.966 11.8865C115.69 11.8865 116.233 11.8865 116.233 11.8865L124.137 4.10245C124.252 3.98788 124.376 3.91877 124.421 3.75017L83.9663 3.75015C83.7224 3.75001 83.2503 3.75015 83.2503 3.75015L82.5514 3.78297C82.5514 3.78297 79.7284 4.04908 79.3036 4.17843L76.4196 4.88528C75.9001 5.09741 75.3602 5.24821 74.8535 5.50107C74.4616 5.69671 73.7963 6.01238 73.4661 6.24993L71.7453 7.43822C71.6006 7.54649 71.4831 7.64389 71.3404 7.76061L69.5822 9.27511C69.1298 9.65321 68.7209 10.0822 68.2961 10.489L68.1527 10.6184C68.146 10.6248 68.1363 10.6342 68.1297 10.6408L67.6027 11.1592C67.2459 11.555 66.8332 11.906 66.4549 12.2842L63.6982 15.0275C63.6915 15.034 63.6818 15.0433 63.6752 15.0499L63.4021 15.3223C63.3953 15.3287 63.3855 15.3379 63.3788 15.3444L62.9931 15.7315C62.9863 15.7379 62.9766 15.7472 62.9698 15.7537L62.6522 16.0724C62.5906 16.1317 62.5243 16.1875 62.4627 16.2465L62.0913 16.6024C61.1202 17.5776 60.1781 18.5156 59.205 19.4888L56.2959 22.3524C55.7999 22.8483 55.3373 23.311 54.8413 23.8069L53.7506 24.898C53.6731 24.9763 53.6417 25.0061 53.5609 25.072C53.466 25.1494 53.4348 25.129 53.4209 25.2956Z" fill="#D40000"/>
<path d="M13.8816 25.4034H1.56348C1.57735 25.2368 1.60862 25.2572 1.70351 25.1798C1.78423 25.1139 1.81567 25.0841 1.89321 25.0059L2.98391 23.9147L4.43846 22.4602L7.34754 19.5966C8.32071 18.6234 9.26276 17.6854 10.2339 16.7102L10.6053 16.3543C10.6669 16.2954 10.7332 16.2395 10.7948 16.1802L11.1124 15.8615L11.1357 15.8393L11.5213 15.4522L11.5447 15.4302L11.8178 15.1578C11.8244 15.1511 11.8341 15.1418 11.8408 15.1353L14.5975 12.392C14.9757 12.0138 15.3885 11.6628 15.7452 11.267L16.2722 10.7486C16.2788 10.742 16.2885 10.7327 16.2953 10.7262L16.4387 10.5969C16.8635 10.19 17.2724 9.76103 17.7247 9.38293L19.483 7.86843C19.6256 7.7517 19.7431 7.65431 19.8878 7.54604L21.6086 6.35775C21.9389 6.1202 22.6041 5.80453 22.9961 5.60889C23.5028 5.35603 24.0427 5.20523 24.5621 4.9931L27.4462 4.28625C27.871 4.1569 30.694 3.89079 30.694 3.89079L31.3929 3.85797C31.3929 3.85797 31.865 3.85783 32.1088 3.85797H74.9483C69.9517 6.20791 64.9551 11.9616 64.9551 11.9616L63.1088 11.9943L33.6073 11.9928L31.2633 12.1488C31.0787 12.1758 30.9185 12.2087 30.7437 12.2201C30.0545 12.265 29.0579 12.4622 28.3814 12.6759L27.5037 13.0256C27.4932 13.0297 27.4807 13.0334 27.4702 13.0375C27.3413 13.0879 27.4477 13.0359 27.3431 13.0923L26.0885 13.8376C25.3727 14.3675 24.716 14.9444 24.0524 15.5288L23.0744 16.4598C22.9582 16.5774 22.8737 16.6613 22.7566 16.7784L14.1435 25.0743C14.0306 25.1717 13.9228 25.2491 13.8816 25.4034Z" fill="#D40000"/>
<path d="M107.573 20.7501C107.573 20.7501 107.105 20.7504 106.738 20.7501H89.1468C87.5285 20.7501 86.6658 20.6758 85.0889 20.8741L84.3178 21.012C84.1428 21.0637 84.1433 21.0824 83.9887 21.1375C83.7002 21.2404 83.5613 21.2936 83.3303 21.4336C82.8802 21.7066 82.4556 22.0404 82.0829 22.4135C82.0763 22.4201 82.067 22.4298 82.0605 22.4365L79.4863 24.9987C79.2499 25.2544 79.3565 25.3028 78.8755 25.297C75.1794 25.2522 71.4795 25.2956 67.7832 25.2956C67.9481 24.984 70.5987 22.3906 71.0898 21.9203L73.6405 19.3802C73.7942 19.2521 73.7559 19.2661 73.885 19.1246C73.9346 19.0703 73.9675 19.0422 74.0243 18.9913L74.9216 18.1158C74.9424 18.0916 74.9387 18.0918 74.984 18.0418L75.8468 17.1773L75.8538 17.1705C76.5641 16.4772 77.2817 15.7768 78.0627 15.166L78.6734 14.7312C78.7983 14.6394 78.8424 14.5937 78.9733 14.5312L79.6154 14.1733C80.4182 13.8004 81.5034 13.4576 82.3756 13.3881C82.6094 13.3694 82.6771 13.3304 82.8394 13.3063L83.7584 13.2254C84.306 13.1373 84.7435 13.2038 85.2114 13.133L87.1467 13.0682C96.3585 13.1023 115.209 13.1591 115.209 13.1591L107.573 20.7501Z" fill="#D40000"/>
<path d="M56.0215 20.8579C56.0215 20.8579 55.2484 20.8582 54.8812 20.8579H37.2903C35.672 20.8579 34.8094 20.7836 33.2325 20.9819L32.4613 21.1198C32.2864 21.1715 32.2868 21.1902 32.1323 21.2453C31.8438 21.3482 31.7049 21.4014 31.4739 21.5415C31.0238 21.8144 30.5992 22.1483 30.2264 22.5213C30.2199 22.5279 30.2105 22.5376 30.2041 22.5443L27.6299 25.1065C27.3935 25.3622 27.5001 25.4106 27.0191 25.4048C23.323 25.36 19.623 25.4034 15.9268 25.4034C16.0916 25.0918 18.7423 22.4984 19.2333 22.0281L21.7841 19.488C21.9378 19.3599 21.8995 19.3739 22.0286 19.2325C22.0781 19.1781 22.1111 19.15 22.1679 19.0991L23.0651 18.2236C23.0859 18.1994 23.0822 18.1996 23.1276 18.1497L23.9903 17.2852L23.9974 17.2783C24.7076 16.5851 25.4252 15.8847 26.2062 15.2738L26.8169 14.839C26.9419 14.7472 26.986 14.7015 27.1169 14.639L27.759 14.2811C28.5618 13.9082 29.647 13.5654 30.5192 13.4959C30.753 13.4772 30.8206 13.4382 30.9829 13.4142L31.902 13.3332C32.4496 13.2452 32.8871 13.3116 33.355 13.2408L35.2902 13.176C44.5021 13.2101 63.5921 13.3243 63.5921 13.3243L56.0215 20.8579Z" fill="#D40000"/>
<path d="M104.828 25.2784L126.357 3.81818H139.601L118.089 25.2784H104.828Z" fill="#D40000"/>
</g>
<defs>
<clipPath id="clip0_304_26">
<rect width="139.602" height="27" fill="white"/>
</clipPath>
</defs>
</svg>
