<svg width="214" height="236" viewBox="0 0 214 236" fill="none" xmlns="http://www.w3.org/2000/svg">
<path fill-rule="evenodd" clip-rule="evenodd" d="M34.1841 0.838815C32.5652 2.04666 32.0669 4.87052 23.7245 60.1532C19.7318 86.6133 13.9195 126.34 12.9776 133.608C12.481 137.444 10.4373 150.624 8.43723 162.898C3.50823 193.138 0 216.411 0 218.871C0 219.988 0.437016 221.174 0.971665 221.504C2.54586 222.476 51.8703 226.774 96.7018 229.844C107.697 230.597 122.76 231.861 130.175 232.652C147.949 234.549 162.722 235.613 165.107 235.168C166.164 234.97 171.395 231.069 176.73 226.499C182.065 221.929 187.417 217.931 188.624 217.615C189.938 217.271 194.662 218.211 200.388 219.957C211.557 223.36 212.619 223.456 213.357 221.132C213.871 219.512 211.535 184.699 210.636 180.566C210.413 179.543 209.365 167.199 208.307 153.136C207.25 139.072 205.985 124.427 205.497 120.592C205.009 116.756 203.132 96.0445 201.326 74.5655C197.259 26.2119 196.286 15.915 195.617 14.1743C194.865 12.2143 193.765 12.0292 176.202 10.9069C167.508 10.3518 159.071 9.72978 157.453 9.52615C152.597 8.91433 151.636 10.389 150.516 20.1708C149.96 25.0291 148.99 29.5471 148.363 30.212C147.462 31.1641 145.568 31.2218 139.396 30.4844C135.091 29.9693 122.993 28.9 112.509 28.1078C76.2484 25.3676 80.1871 26.011 79.1476 22.6525C78.6455 21.0318 77.963 17.823 77.6301 15.5217C76.5618 8.12955 75.2953 4.41769 73.5147 3.46555C72.5589 2.95322 65.7739 2.1136 58.4367 1.5994C51.0994 1.08428 43.0035 0.432462 40.4446 0.150725C37.3687 -0.187731 35.2478 0.0447445 34.1841 0.838815ZM28.965 64.5699C13.1338 171.59 10.2941 191.543 10.7832 192.333C11.0491 192.765 13.5773 193.118 16.3993 193.118C19.2213 193.118 26.6237 193.573 32.8488 194.128C45.5075 195.257 47.5131 196.179 45.7464 200.057C44.4837 202.828 44.9254 202.806 26.9649 201.022C6.73658 199.012 8.9384 198.26 7.58179 207.643C6.94486 212.051 6.60082 215.837 6.81933 216.054C7.16988 216.405 48.2951 219.905 104.14 224.34C114.624 225.172 131.989 226.583 142.728 227.474C153.468 228.365 162.332 229.047 162.428 228.987C162.524 228.928 163.909 218.008 165.505 204.722C167.101 191.436 169.438 172.825 170.699 163.364C172.79 147.666 177.234 111.388 183.625 57.8287C184.966 46.5778 186.646 33.1883 187.355 28.0743C188.064 22.9603 188.355 18.4952 188.002 18.1521C187.358 17.5273 166.313 15.5217 160.401 15.5217C156.791 15.5217 157.528 12.6597 154.29 39.2322C152.346 55.1852 151.282 58.5967 147.916 59.6651C145.72 60.3615 74.438 54.0387 69.668 52.7239C63.8306 51.1154 63.5544 49.4909 65.9171 30.636C67.0543 21.5562 68.2026 12.841 68.4686 11.2696L68.9521 8.41223L56.5594 7.31688C49.7438 6.71343 42.6882 6.22155 40.8816 6.22248L37.5965 6.22341L28.965 64.5699ZM72.2688 31.0414C72.0298 31.4551 71.5472 35.1856 71.1976 39.3307L70.5625 46.8688L74.809 47.4509C87.1441 49.1413 145.452 53.6175 146.141 52.9276C147.146 51.9234 148.365 36.9076 147.442 36.9076C147.07 36.9076 134.979 35.8857 120.572 34.6379C106.165 33.3892 90.6114 32.1088 86.0088 31.7936C81.4061 31.4774 76.5292 31.0097 75.1717 30.755C73.8141 30.4993 72.5077 30.6285 72.2688 31.0414ZM191.534 45.3532C191.504 46.536 188.538 74.1294 186.896 88.5129C185.844 97.7181 184.543 109.225 184.004 114.083C183.465 118.941 182.651 125.218 182.196 128.03C180.75 136.967 177.595 166.472 177.673 170.337C177.747 174.028 177.756 174.037 178.866 171.537C179.896 169.215 179.997 169.48 180.158 174.92C180.348 181.321 183.221 187.425 186.078 187.5C187.112 187.527 187.777 188.727 188.191 191.315C188.523 193.391 188.552 195.484 188.255 195.964C187.473 197.228 190.313 197.036 192.542 195.675C194.146 194.696 194.64 194.773 195.67 196.161C196.817 197.706 196.93 197.676 197.461 195.697C197.773 194.534 198.09 192.119 198.166 190.329C198.242 188.539 198.62 190.003 199.004 193.583C199.388 197.163 199.957 201.661 200.267 203.579C200.943 207.746 200.621 207.81 192.63 205.112C188.006 203.551 186.571 203.387 185.476 204.296C184.381 205.204 184.1 205.176 184.076 204.157C184.056 203.318 183.566 203.516 182.645 204.736C181.443 206.326 181.119 206.392 180.375 205.201C179.898 204.437 179.239 201.457 178.91 198.58C178.396 194.087 178.069 193.412 176.59 193.799C174.646 194.306 174.265 195.302 173.399 202.13C172.76 207.179 173.446 211.161 174.81 210.318C176.736 209.128 176.47 211.734 174.508 213.279C172.455 214.893 170.308 220.083 171.693 220.083C172.045 220.083 175.998 217.589 180.478 214.542L188.623 209.001L197.29 211.736C202.056 213.24 206.122 214.479 206.323 214.487C206.525 214.497 206.42 211.679 206.09 208.228C205.76 204.776 203.395 175.849 200.836 143.948C195.686 79.7818 192.661 46.0822 191.986 45.409C191.743 45.1654 191.539 45.1403 191.534 45.3532ZM113.367 102.854C108.793 107.428 109.798 114.493 115.439 117.41C122.9 121.269 130.966 114.209 128.306 106.149C126.246 99.9088 118.107 98.1133 113.367 102.854ZM86.9386 114.795C83.6228 117.235 75.3158 127.294 75.3158 128.87C75.3158 129.919 76.3107 131.429 77.526 132.225C80.5358 134.197 83.1747 132.839 87.6499 127.01C90.9341 122.734 91.4129 122.451 95.3758 122.451C98.5121 122.451 99.4187 122.751 98.8952 123.614C98.5075 124.253 95.3442 128.738 91.8667 133.58C88.3891 138.422 85.5392 143.025 85.5327 143.808C85.5271 144.592 88.5314 147.979 92.2107 151.336L98.8999 157.441L94.5464 165.427C88.683 176.183 88.9703 180.684 95.4725 179.935C97.7366 179.675 98.7901 178.311 103.576 169.444C110.858 155.951 110.906 154.188 104.14 148.666C101.328 146.369 98.8859 144.133 98.7148 143.695C98.5437 143.258 100.371 140.143 102.775 136.774L107.146 130.648L109.382 134.397C111.955 138.711 112.288 138.847 122.323 139.667C130.551 140.34 132.469 139.465 131.874 135.311C131.487 132.616 128.007 130.852 123.046 130.834C117.63 130.814 116.354 130.131 114.805 126.423C114.059 124.639 111.947 121.134 110.111 118.632L106.772 114.083L97.3201 114.097C92.1214 114.105 87.45 114.42 86.9386 114.795ZM78.5702 151.806L74.8509 156.05L65.7739 154.953C56.1028 153.785 54.6142 154.136 53.6518 157.818C52.6448 161.668 55.6147 163.349 66.0175 164.823C71.3873 165.582 76.6473 165.995 77.7064 165.739C79.5744 165.286 89.2632 154.683 89.2632 153.091C89.2632 152.363 83.5271 147.553 82.667 147.56C82.4596 147.56 80.6158 149.472 78.5702 151.806ZM133.003 189.974C126.917 195.095 125.645 202.537 129.679 209.42C133.608 216.125 140.209 217.974 147.542 214.424C153.17 211.7 155.642 207.888 155.7 201.849C155.751 196.363 153.92 193.128 148.781 189.631C144.247 186.545 136.888 186.705 133.003 189.974ZM174.88 189.941C174.925 191.024 175.145 191.245 175.442 190.503C175.711 189.832 175.677 189.03 175.369 188.721C175.06 188.412 174.84 188.961 174.88 189.941ZM138.562 195.242C131.628 198.751 133.796 208.925 141.478 208.925C144.653 208.925 148.772 205.298 148.772 202.503C148.772 199.46 146.859 196.182 144.442 195.08C141.631 193.8 141.401 193.806 138.562 195.242ZM181.316 201.022C181.316 203.003 181.316 198.697 181.316 198.697C181.316 198.697 181.316 199.209 181.316 201.022Z" fill="white"/>
</svg>
