<svg width="162" height="37" viewBox="0 0 162 37" fill="none" xmlns="http://www.w3.org/2000/svg">
<path d="M4.20094 9.27C10.6144 8.28813 16.9215 8.28813 22.8902 9.27C23.59 6.18001 24.2909 3.09 24.9907 0H6.30147C5.60168 3.09 4.90184 6.18001 4.20094 9.27ZM0 27.8133C6.41347 26.8314 12.7205 26.8314 18.6892 27.8133C17.995 30.8755 17.3018 33.9378 16.6076 37H35.2968C35.9899 33.9378 36.6842 30.8755 37.3785 27.8133C43.7919 26.8314 50.0989 26.8314 56.0677 27.8133C55.3734 30.8755 54.6792 33.9378 53.9861 37H142.975C151.622 37 159.113 30.9911 161.001 22.5397C163.584 10.9794 154.804 0 142.975 0H43.6799C42.9801 3.09 42.2804 6.18001 41.5795 9.27C35.166 10.2519 28.859 10.2519 22.8902 9.27C22.1893 12.36 21.4895 15.4511 20.7897 18.5411C26.7585 19.523 33.0654 19.523 39.4789 18.5411C38.7791 21.6311 38.0782 24.7233 37.3785 27.8133C30.965 28.7952 24.658 28.7952 18.6892 27.8133C19.3901 24.7233 20.0899 21.6311 20.7897 18.5411C14.8209 17.5592 8.51394 17.5592 2.10047 18.5411M2.10047 18.5411C1.40067 21.6311 0.699793 24.7233 0 27.8133L2.10047 18.5411ZM58.1671 18.5411C52.1983 17.5592 45.8924 17.5592 39.4789 18.5411C40.1787 15.4511 40.8785 12.36 41.5783 9.27C47.9918 8.28813 54.2988 8.28813 60.2676 9.27C59.5678 12.36 58.8669 15.4511 58.1671 18.5411Z" fill="#F4F4F4"/>
</svg>
