<svg width="22" height="19" viewBox="0 0 22 19" fill="none" xmlns="http://www.w3.org/2000/svg">
<path fill-rule="evenodd" clip-rule="evenodd" d="M1.49195 7.93872C7.3193 5.33651 11.2048 3.62081 13.1485 2.79162C18.7 0.426316 19.8595 0.0155406 20.6051 0.000255977C20.8816 -0.00525286 21.1529 0.0782761 21.3806 0.239079C21.5404 0.380314 21.6423 0.578212 21.6658 0.793148C21.706 1.06046 21.7172 1.33149 21.6994 1.60132C21.3993 4.84931 20.0962 12.6999 19.4344 16.3281C19.1548 17.8566 18.603 18.3781 18.068 18.4297C16.9085 18.5386 16.0174 17.6426 14.8989 16.8879C13.1392 15.7052 12.1456 14.9773 10.438 13.8157C8.46388 12.4783 9.74456 11.7503 10.8686 10.5543C11.1632 10.241 16.2747 5.47216 16.3754 5.04037C16.3886 4.97661 16.3871 4.91054 16.3709 4.84749C16.3547 4.78444 16.3243 4.72617 16.2822 4.67736C16.221 4.63817 16.1517 4.61413 16.0799 4.60717C16.008 4.6002 15.9356 4.6105 15.8683 4.63724C15.6931 4.67672 12.8832 6.5803 7.43861 10.348C6.64075 10.9097 5.91808 11.1835 5.27059 11.1695C4.55662 11.1523 3.1846 10.7549 2.16304 10.4053C0.912195 9.98878 -0.0739346 9.76906 0.00435989 9.06788C0.0503423 8.70105 0.546204 8.32466 1.49195 7.93872Z" fill="#D40000"/>
</svg>
