<svg width="20" height="21" viewBox="0 0 20 21" fill="none" xmlns="http://www.w3.org/2000/svg">
<path d="M0 20.4967L1.40745 15.2312C0.318593 13.2934 -0.116127 11.0416 0.17068 8.82485C0.457487 6.60811 1.44979 4.55025 2.99377 2.9703C4.53776 1.39035 6.54717 0.376561 8.71049 0.0860966C10.8738 -0.204368 13.0702 0.244718 14.9592 1.36373C16.8482 2.48275 18.3242 4.20919 19.1584 6.27541C19.9927 8.34163 20.1386 10.6322 19.5735 12.7921C19.0084 14.9519 17.7639 16.8604 16.0329 18.2216C14.3019 19.5828 12.1811 20.3207 9.99932 20.321C8.34431 20.32 6.71587 19.8944 5.26251 19.0829L0 20.4967ZM5.49925 17.2487L5.80126 17.4398C7.07116 18.2106 8.51972 18.6177 9.9956 18.6186C11.8233 18.619 13.5992 17.9969 15.0442 16.85C16.4893 15.7031 17.5215 14.0966 17.9786 12.283C18.4356 10.4693 18.2917 8.55142 17.5693 6.83077C16.8469 5.11012 15.5871 3.68431 13.9879 2.77748C12.3887 1.87066 10.5408 1.53424 8.73474 1.82112C6.92865 2.108 5.2668 3.00192 4.01045 4.36233C2.75409 5.72274 1.97447 7.4725 1.79416 9.33653C1.61385 11.2006 2.04307 13.0731 3.01434 14.6599L3.20076 14.979L2.36748 18.0951L5.49925 17.2487Z" fill="#D40000"/>
<path fill-rule="evenodd" clip-rule="evenodd" d="M14.993 12.5752C14.9315 12.4682 14.7656 12.4051 14.5177 12.279C14.2697 12.153 13.0525 11.5377 12.825 11.4518C12.5976 11.3658 12.4336 11.3257 12.2658 11.5798C12.098 11.8339 11.6264 12.4051 11.4828 12.5752C11.3393 12.7452 11.192 12.7662 10.946 12.6382C10.2193 12.3392 9.54887 11.9132 8.96436 11.3792C8.42275 10.8657 7.95849 10.2727 7.58675 9.61952C7.44135 9.36541 7.56998 9.2374 7.69487 9.10175C7.81977 8.9661 7.94281 8.8037 8.06771 8.65659C8.1702 8.52843 8.25375 8.38552 8.31564 8.23244C8.34827 8.16225 8.36347 8.08488 8.35989 8.00722C8.35631 7.92955 8.33406 7.854 8.29513 7.78727C8.23361 7.66117 7.73588 6.41165 7.53083 5.90344C7.32577 5.39522 7.12631 5.47547 6.97158 5.46592C6.81686 5.45636 6.66214 5.46592 6.49809 5.46592C6.37068 5.46807 6.24513 5.49758 6.12954 5.55254C6.01395 5.6075 5.91088 5.68668 5.82699 5.78498C5.54898 6.05515 5.32847 6.3813 5.1793 6.74297C5.03013 7.10463 4.95553 7.494 4.96016 7.88662C4.96016 9.13614 5.8475 10.3436 5.9724 10.5137C6.0973 10.6837 7.71911 13.2477 10.204 14.3463C10.6654 14.5503 11.1371 14.7289 11.617 14.8813C12.1225 15.0386 12.6566 15.0732 13.1773 14.9825C13.6527 14.9099 14.6426 14.3673 14.8551 13.775C15.0676 13.1828 15.0546 12.6803 14.993 12.5752Z" fill="#D40000"/>
</svg>
