<svg width="264" height="250" viewBox="0 0 264 250" fill="none" xmlns="http://www.w3.org/2000/svg">
<path fill-rule="evenodd" clip-rule="evenodd" d="M36.823 7.71392C31.785 8.47492 31.753 8.70794 32.26 41.7299L32.732 72.4999L37.752 97.4999C45.272 134.95 45.365 135.658 44.034 145.762C43.4 150.568 40.419 169.8 37.407 188.5C30.681 230.273 30.113 235.97 32.442 238.299C34.573 240.43 35.244 240.421 53.5 238.016C72.842 235.469 81.745 235.503 99.236 238.194C119.546 241.318 150.487 241.326 171.242 238.212C189.308 235.501 196.538 235.469 214.471 238.016C231.494 240.433 237.307 240.539 239.031 238.463C241.021 236.065 240.351 228.656 234.949 193.263C232.198 175.243 229.233 155.775 228.361 150C226.339 136.617 226.724 132.466 233.007 99.9999C238.49 71.6649 239.868 57.1689 239.957 26.8609C239.994 14.3439 239.746 11.9169 238.25 10.1219L236.5 8.02294L138 7.66591C83.825 7.47091 38.295 7.49192 36.823 7.71392ZM38 24.4999V34.9999H41.5C44.713 34.9999 45 34.7569 45 32.0349C45 27.9869 47.299 26.9999 56.734 26.9999C65.575 26.9999 67 27.7909 67 32.6999C67 35.7589 67.238 35.9999 70.263 35.9999C72.687 35.9999 73.779 35.4219 74.513 33.7499C75.063 32.4959 76.385 31.4999 77.5 31.4999C78.615 31.4999 79.937 32.4959 80.487 33.7499C81.839 36.8319 88.499 37.0249 89.288 34.0049C90.163 30.6589 93.041 30.3359 95.227 33.3379C97.939 37.0589 103.671 37.1589 104.589 33.4999C105.042 31.6959 105.89 30.9999 107.633 30.9999C109.29 30.9999 110.348 31.7849 111 33.4999C111.788 35.5709 112.613 35.9999 115.815 35.9999C118.966 35.9999 119.889 35.5389 120.818 33.4999C121.445 32.1249 122.38 30.9999 122.897 30.9999C125.196 30.9999 127 32.3659 127 34.1069C127 35.6679 127.747 35.9999 131.263 35.9999C134.72 35.9999 135.712 35.5759 136.513 33.7559C137.949 30.4919 140.791 30.3209 141.972 33.4269C142.799 35.6029 143.572 35.9999 146.975 35.9999C150.287 35.9999 151 35.6569 151 34.0669C151 32.9979 151.915 31.8439 153.048 31.4849C155.308 30.7679 158 32.4729 158 34.6219C158 35.5679 159.283 35.9999 162.094 35.9999C165.297 35.9999 166.297 35.5799 166.692 34.0689C167.264 31.8819 169.323 30.8029 171.401 31.6009C172.172 31.8959 173.03 33.0069 173.308 34.0689C174.052 36.9149 181.542 36.8579 182.29 33.9999C182.639 32.6659 183.654 31.9999 185.339 31.9999C186.987 31.9999 188.086 32.6949 188.5 33.9999C189.009 35.6039 190.013 35.9999 193.567 35.9999C197.269 35.9999 198 35.6839 198 34.0829C198 33.0289 198.563 31.9769 199.25 31.7459C201.534 30.9769 204 32.2079 204 34.1169C204 36.9119 211.96 36.8689 212.692 34.0689C212.97 33.0069 213.86 31.8839 214.671 31.5729C216.652 30.8119 220 32.7039 220 34.5829C220 35.8029 221.207 36.0379 226.25 35.7979L232.5 35.4999L232.784 24.7499L233.068 13.9999H135.534H38V24.4999ZM51.712 33.6819C51.443 34.1319 51.455 36.8629 51.738 39.7499L52.254 44.9999H56.627H61V39.4999C61 34.0899 60.952 33.9999 58.082 33.9999C56.477 33.9999 54.497 33.7439 53.683 33.4319C52.869 33.1189 51.982 33.2319 51.712 33.6819ZM38 47.8669V53.7349L51.25 54.2819C58.538 54.5829 102.3 54.7549 148.5 54.6649L232.5 54.4999L232.798 48.2499L233.095 41.9999H226.664C221.074 41.9999 220.165 42.2619 219.71 43.9999C219.351 45.3739 218.346 45.9999 216.5 45.9999C214.654 45.9999 213.649 45.3739 213.29 43.9999C212.87 42.3939 211.926 41.9999 208.5 41.9999C205.074 41.9999 204.13 42.3939 203.71 43.9999C203.357 45.3509 202.346 45.9999 200.594 45.9999C198.667 45.9999 198 45.4859 198 43.9999C198 42.3009 197.333 41.9999 193.567 41.9999C190.013 41.9999 189.009 42.3959 188.5 43.9999C188.086 45.3049 186.987 45.9999 185.339 45.9999C183.654 45.9999 182.639 45.3339 182.29 43.9999C181.881 42.4369 180.926 41.9999 177.919 41.9999C175.094 41.9999 173.786 42.5319 173 43.9999C172.411 45.0999 171.061 45.9999 170 45.9999C168.939 45.9999 167.589 45.0999 167 43.9999C166.214 42.5319 164.906 41.9999 162.081 41.9999C159.074 41.9999 158.119 42.4369 157.71 43.9999C157.365 45.3209 156.346 45.9999 154.71 45.9999C153.074 45.9999 152.056 45.3209 151.71 43.9999C151.292 42.4019 150.346 41.9999 147 41.9999C143.654 41.9999 142.708 42.4019 142.29 43.9999C141.944 45.3209 140.926 45.9999 139.29 45.9999C137.654 45.9999 136.635 45.3209 136.29 43.9999C135.87 42.3939 134.926 41.9999 131.5 41.9999C128.074 41.9999 127.13 42.3939 126.71 43.9999C126.365 45.3209 125.346 45.9999 123.71 45.9999C122.074 45.9999 121.056 45.3209 120.71 43.9999C120.283 42.3659 119.346 41.9999 115.594 41.9999C111.667 41.9999 111 42.2899 111 43.9999C111 45.5559 110.333 45.9999 108 45.9999C105.667 45.9999 105 45.5559 105 43.9999C105 42.3039 104.333 41.9999 100.617 41.9999C97.074 41.9999 96.133 42.3839 95.71 43.9999C95.365 45.3209 94.346 45.9999 92.71 45.9999C91.074 45.9999 90.056 45.3209 89.71 43.9999C89.296 42.4179 88.346 41.9999 85.161 41.9999C82.013 41.9999 80.996 42.4359 80.5 43.9999C80.101 45.2569 78.987 45.9999 77.5 45.9999C76.013 45.9999 74.899 45.2569 74.5 43.9999C74.028 42.5119 72.987 41.9999 70.433 41.9999C67.1 41.9999 67 42.1149 67 45.9649C67 51.0909 65.288 51.9999 55.637 51.9999C46.982 51.9999 45 50.7759 45 45.4289C45 42.1769 44.819 41.9999 41.5 41.9999H38V47.8669ZM38.338 65.7449C38.677 68.3599 41.225 82.1999 43.998 96.4999C52.211 138.838 51.993 132.514 46.537 170C40.4 212.164 38.059 229.056 38.026 231.388C38.002 233.121 38.556 233.221 44.75 232.602C48.462 232.231 57.711 231.016 65.302 229.903L79.104 227.88L94.802 230.436C126.39 235.579 143.278 235.588 176.345 230.479L192.19 228.031L205.994 229.999C213.586 231.082 223.026 232.267 226.972 232.634L234.147 233.301L233.551 229.9C233.224 228.03 232.048 220.425 230.939 213C229.83 205.575 226.914 186.048 224.461 169.607C222.007 153.167 220 138.063 220 136.045C220 134.026 222.709 118.509 226.02 101.563C229.331 84.6159 232.144 68.6689 232.27 66.1249L232.5 61.4999L135.11 61.2449L37.72 60.9899L38.338 65.7449ZM96.766 120.918C93.631 123.719 93.486 124.179 93.147 132.418L92.795 141H82.348C70.771 141 67.164 142.151 65.195 146.472C64.357 148.311 64.001 157.666 64.004 177.797C64.007 204.454 64.146 206.727 65.95 209.686C67.019 211.439 68.805 213.361 69.921 213.958C71.334 214.714 91.524 214.961 136.557 214.771L201.165 214.5L204.082 211.234L207 207.968L206.994 168.234C206.991 144.489 206.581 127.032 205.976 124.853C204.01 117.777 205.831 118 150.051 118H100.032L96.766 120.918ZM102.428 125.3C101.404 125.873 101 128.068 101 133.05V140L125.25 140.006C138.704 140.009 151.141 140.467 153.186 141.035C155.213 141.598 157.962 143.355 159.295 144.939C161.66 147.75 161.73 148.344 162.204 169.681C162.607 187.802 162.992 192.18 164.455 195.263C165.425 197.309 166.62 198.735 167.11 198.432C167.891 197.949 168.458 200.097 168.118 202.25C168.053 202.663 168.477 203 169.059 203C169.641 203 169.84 203.45 169.5 204C169.16 204.55 169.584 205 170.441 205C171.298 205 172 205.45 172 206C172 207.095 197.219 207.448 198.298 206.369C198.645 206.021 198.499 204.933 197.973 203.949C197.438 202.949 197.404 202.016 197.896 201.831C198.381 201.649 199.097 184.83 199.489 164.456C200.094 132.948 199.987 127.234 198.772 126.225C197.102 124.84 104.832 123.953 102.428 125.3ZM71.902 150.739C71.179 152.628 71.106 161.864 71.673 180L72.5 206.5L112.209 206.761L151.917 207.023L153.072 204.865C154.013 203.106 153.928 202.539 152.614 201.804C150.599 200.676 150.574 199.569 152.518 197.625C153.807 196.336 153.996 192.503 153.768 172.303L153.5 148.5L113.23 148.239L72.959 147.977L71.902 150.739ZM106.813 202.683C107.534 202.972 108.397 202.936 108.729 202.604C109.061 202.272 108.471 202.036 107.417 202.079C106.252 202.127 106.015 202.364 106.813 202.683ZM106.813 205.683C107.534 205.972 108.397 205.936 108.729 205.604C109.061 205.272 108.471 205.036 107.417 205.079C106.252 205.127 106.015 205.364 106.813 205.683Z" fill="white"/>
</svg>
